<svg width="33" height="34" viewBox="0 0 33 34" fill="none" xmlns="http://www.w3.org/2000/svg">
<path d="M6.16673 22C7.62449 21.9957 9.0271 21.4422 10.0951 20.45L20.5284 26.4117C20.1788 27.7777 20.3329 29.2239 20.9625 30.4856C21.5921 31.7472 22.655 32.74 23.9567 33.282C25.2583 33.824 26.7117 33.8791 28.0507 33.4372C29.3897 32.9952 30.5247 32.0858 31.248 30.8754C31.9712 29.665 32.2344 28.2346 31.9892 26.8461C31.7441 25.4575 31.007 24.2037 29.913 23.3142C28.8189 22.4247 27.4411 21.9589 26.0317 22.0022C24.6224 22.0455 23.2758 22.595 22.2384 23.55L11.8051 17.5883C11.9151 17.1717 11.9751 16.74 11.9851 16.3083L22.2351 10.45C23.222 11.348 24.4878 11.8792 25.82 11.9545C27.1522 12.0299 28.4697 11.6448 29.5517 10.8639C30.6336 10.0829 31.414 8.95367 31.7621 7.66554C32.1101 6.3774 32.0046 5.00876 31.4631 3.78922C30.9217 2.56969 29.9773 1.57346 28.7884 0.967661C27.5996 0.361866 26.2385 0.183365 24.9336 0.462104C23.6287 0.740843 22.4594 1.45986 21.6218 2.49854C20.7842 3.53721 20.3293 4.83235 20.3334 6.16667C20.3401 6.64667 20.4051 7.125 20.5284 7.58834L11.0551 13C10.5057 12.1501 9.74467 11.4577 8.84676 10.991C7.94885 10.5242 6.94495 10.299 5.93369 10.3376C4.92243 10.3762 3.9386 10.6772 3.07887 11.211C2.21914 11.7449 1.51308 12.4932 1.03007 13.3825C0.547054 14.2718 0.303701 15.2714 0.323918 16.2832C0.344136 17.295 0.627229 18.2841 1.14538 19.1534C1.66354 20.0227 2.39893 20.7422 3.2793 21.2413C4.15967 21.7404 5.15473 22.0018 6.16673 22Z" fill="black"/>
</svg>
